HIERARCHY
ROOT Hips
{
	OFFSET 0.000000 83.214638 0.000000
	CHANNELS 6 Xposition Yposition Zposition Xrotation Yrotation Zrotation
	JOINT Pelvis
	{
		OFFSET 0.000000 0.000000 0.000000
		CHANNELS 3 Xrotation Yrotation Zrotation
		JOINT LeftUpLeg
		{
			OFFSET 8.479700 -4.795502 -0.379100
			CHANNELS 3 Xrotation Yrotation Zrotation
			JOINT LeftLeg
			{
				OFFSET 0.024144 -32.555107 0.112900
				CHANNELS 3 Xrotation Yrotation Zrotation
				JOINT LeftFoot
				{
					OFFSET -0.024144 -32.638630 -3.012600
					CHANNELS 3 Xrotation Yrotation Zrotation
					JOINT LeftToeBase
					{
						OFFSET 0.970200 -13.225400 11.864200
						CHANNELS 3 Xrotation Yrotation Zrotation
						End Site
						{
							OFFSET 0.000000 12.319262 0.000000
						}
					}
					JOINT LFootTongue
					{
						OFFSET 1.142400 -1.059800 6.665200
						CHANNELS 3 Xrotation Yrotation Zrotation
						End Site
						{
							OFFSET 0.000000 12.319262 0.000000
						}
					}
				}
				JOINT LeftPantLeg
				{
					OFFSET 0.918482 -16.533964 -2.284700
					CHANNELS 3 Xrotation Yrotation Zrotation
					End Site
					{
						OFFSET 0.350399 24.744368 0.000000
					}
				}
			}
		}
		JOINT RightUpLeg
		{
			OFFSET -8.479700 -4.795502 -0.379100
			CHANNELS 3 Xrotation Yrotation Zrotation
			JOINT RightLeg
			{
				OFFSET -0.023144 -32.555092 0.112900
				CHANNELS 3 Xrotation Yrotation Zrotation
				JOINT RightFoot
				{
					OFFSET 0.023144 -32.638641 -3.012700
					CHANNELS 3 Xrotation Yrotation Zrotation
					JOINT RightToeBase
					{
						OFFSET -0.970200 -13.225400 11.864200
						CHANNELS 3 Xrotation Yrotation Zrotation
						End Site
						{
							OFFSET 0.000000 12.319244 0.000000
						}
					}
					JOINT RFootTongue
					{
						OFFSET -1.142200 -1.059800 6.665200
						CHANNELS 3 Xrotation Yrotation Zrotation
						End Site
						{
							OFFSET 0.000000 12.319243 0.000000
						}
					}
				}
				JOINT RightPantLeg
				{
					OFFSET -0.919482 -16.533978 -2.284800
					CHANNELS 3 Xrotation Yrotation Zrotation
					End Site
					{
						OFFSET -0.350400 24.744419 0.000000
					}
				}
			}
		}
	}
	JOINT Spine
	{
		OFFSET 0.000000 7.722000 1.166200
		CHANNELS 3 Xrotation Yrotation Zrotation
		JOINT Spine1
		{
			OFFSET 0.000000 12.024101 0.248800
			CHANNELS 3 Xrotation Yrotation Zrotation
			JOINT Spine2
			{
				OFFSET 0.000000 11.502998 -0.491200
				CHANNELS 3 Xrotation Yrotation Zrotation
				JOINT Neck
				{
					OFFSET 0.000000 18.430702 -3.123100
					CHANNELS 3 Xrotation Yrotation Zrotation
					JOINT Head
					{
						OFFSET 0.000000 9.051102 1.034000
						CHANNELS 3 Xrotation Yrotation Zrotation
						JOINT HairB
						{
							OFFSET 0.208400 24.786102 24.822300
							CHANNELS 3 Xrotation Yrotation Zrotation
							End Site
							{
								OFFSET 0.000000 32.263779 0.000000
							}
						}
						JOINT HairA
						{
							OFFSET -7.081100 24.428299 23.196600
							CHANNELS 3 Xrotation Yrotation Zrotation
							End Site
							{
								OFFSET 0.000000 32.263779 0.000000
							}
						}
						JOINT Hat
						{
							OFFSET 16.728800 15.048294 -15.439601
							CHANNELS 3 Xrotation Yrotation Zrotation
							End Site
							{
								OFFSET 0.000000 32.263779 0.000000
							}
						}
					}
				}
				JOINT LeftShoulder
				{
					OFFSET 6.197800 13.665199 -4.064700
					CHANNELS 3 Xrotation Yrotation Zrotation
					JOINT LeftArm
					{
						OFFSET 7.778100 -0.187103 -1.709300
						CHANNELS 3 Xrotation Yrotation Zrotation
						JOINT LeftForeArm
						{
							OFFSET 22.049376 0.000000 0.000000
							CHANNELS 3 Xrotation Yrotation Zrotation
							JOINT LeftHand
							{
								OFFSET 23.009392 0.000000 0.000000
								CHANNELS 3 Xrotation Yrotation Zrotation
								JOINT LeftHandThumb1
								{
									OFFSET 3.507191 -2.063065 3.133727
									CHANNELS 3 Xrotation Yrotation Zrotation
									JOINT LeftHandThumb2
									{
										OFFSET 3.101337 -1.790558 1.790558
										CHANNELS 3 Xrotation Yrotation Zrotation
										JOINT LeftHandThumb3
										{
											OFFSET 3.058640 -1.765907 1.765906
											CHANNELS 3 Xrotation Yrotation Zrotation
											End Site
											{
												OFFSET -0.415260 3.926476 -0.049563
											}
										}
									}
								}
								JOINT LeftHandIndex1
								{
									OFFSET 11.334419 -0.901459 3.706815
									CHANNELS 3 Xrotation Yrotation Zrotation
									JOINT LeftHandIndex2
									{
										OFFSET 3.283112 0.000000 0.000000
										CHANNELS 3 Xrotation Yrotation Zrotation
										JOINT LeftHandIndex3
										{
											OFFSET 3.323853 0.000000 0.000000
											CHANNELS 3 Xrotation Yrotation Zrotation
											End Site
											{
												OFFSET -1.135597 3.097809 0.402452
											}
										}
									}
								}
								JOINT LeftHandMiddle1
								{
									OFFSET 11.335861 0.000000 0.000000
									CHANNELS 3 Xrotation Yrotation Zrotation
									JOINT LeftHandMiddle2
									{
										OFFSET 3.410492 0.000000 0.000000
										CHANNELS 3 Xrotation Yrotation Zrotation
										JOINT LeftHandMiddle3
										{
											OFFSET 3.312172 0.000000 0.000000
											CHANNELS 3 Xrotation Yrotation Zrotation
											End Site
											{
												OFFSET -1.150200 3.080154 0.400270
											}
										}
									}
								}
								JOINT LeftHandRing1
								{
									OFFSET 11.514786 -0.013176 -3.003090
									CHANNELS 3 Xrotation Yrotation Zrotation
									JOINT LeftHandRing2
									{
										OFFSET 3.053307 0.000000 0.000000
										CHANNELS 3 Xrotation Yrotation Zrotation
										JOINT LeftHandRing3
										{
											OFFSET 3.295807 0.000000 0.000000
											CHANNELS 3 Xrotation Yrotation Zrotation
											End Site
											{
												OFFSET -1.281006 3.013344 0.375733
											}
										}
									}
								}
								JOINT LeftHandPinky1
								{
									OFFSET 10.518692 -0.960396 -5.730441
									CHANNELS 3 Xrotation Yrotation Zrotation
									JOINT LeftHandPinky2
									{
										OFFSET 2.861649 0.000000 0.000000
										CHANNELS 3 Xrotation Yrotation Zrotation
										JOINT LeftHandPinky3
										{
											OFFSET 2.863380 0.000000 0.000000
											CHANNELS 3 Xrotation Yrotation Zrotation
											End Site
											{
												OFFSET -0.843597 2.711159 0.369971
											}
										}
									}
								}
							}
							JOINT LSleeve
							{
								OFFSET 6.676277 -0.344902 -1.011730
								CHANNELS 3 Xrotation Yrotation Zrotation
								End Site
								{
									OFFSET 0.000000 14.885353 0.000000
								}
							}
						}
					}
				}
				JOINT RightShoulder
				{
					OFFSET -6.197800 13.665199 -4.064700
					CHANNELS 3 Xrotation Yrotation Zrotation
					JOINT RightArm
					{
						OFFSET -7.778100 -0.187103 -1.709300
						CHANNELS 3 Xrotation Yrotation Zrotation
						JOINT RightForeArm
						{
							OFFSET -22.049376 0.000000 0.000000
							CHANNELS 3 Xrotation Yrotation Zrotation
							JOINT RightHand
							{
								OFFSET -23.009392 0.000000 0.000000
								CHANNELS 3 Xrotation Yrotation Zrotation
								JOINT RightHandThumb1
								{
									OFFSET -3.507191 -2.063065 3.133727
									CHANNELS 3 Xrotation Yrotation Zrotation
									JOINT RightHandThumb2
									{
										OFFSET -3.101337 -1.790558 1.790558
										CHANNELS 3 Xrotation Yrotation Zrotation
										JOINT RightHandThumb3
										{
											OFFSET -3.058640 -1.765907 1.765906
											CHANNELS 3 Xrotation Yrotation Zrotation
											End Site
											{
												OFFSET 0.415260 3.926476 -0.049563
											}
										}
									}
								}
								JOINT RightHandIndex1
								{
									OFFSET -11.334419 -0.901459 3.706815
									CHANNELS 3 Xrotation Yrotation Zrotation
									JOINT RightHandIndex2
									{
										OFFSET -3.283112 0.000000 0.000000
										CHANNELS 3 Xrotation Yrotation Zrotation
										JOINT RightHandIndex3
										{
											OFFSET -3.323853 0.000000 0.000000
											CHANNELS 3 Xrotation Yrotation Zrotation
											End Site
											{
												OFFSET 1.135597 3.097809 0.402452
											}
										}
									}
								}
								JOINT RightHandMiddle1
								{
									OFFSET -11.335861 0.000000 0.000000
									CHANNELS 3 Xrotation Yrotation Zrotation
									JOINT RightHandMiddle2
									{
										OFFSET -3.410492 0.000000 0.000000
										CHANNELS 3 Xrotation Yrotation Zrotation
										JOINT RightHandMiddle3
										{
											OFFSET -3.312172 0.000000 0.000000
											CHANNELS 3 Xrotation Yrotation Zrotation
											End Site
											{
												OFFSET 1.150200 3.080154 0.400270
											}
										}
									}
								}
								JOINT RightHandRing1
								{
									OFFSET -11.514786 -0.013176 -3.003090
									CHANNELS 3 Xrotation Yrotation Zrotation
									JOINT RightHandRing2
									{
										OFFSET -3.053307 0.000000 0.000000
										CHANNELS 3 Xrotation Yrotation Zrotation
										JOINT RightHandRing3
										{
											OFFSET -3.295807 0.000000 0.000000
											CHANNELS 3 Xrotation Yrotation Zrotation
											End Site
											{
												OFFSET 1.281006 3.013344 0.375733
											}
										}
									}
								}
								JOINT RightHandPinky1
								{
									OFFSET -10.518692 -0.960396 -5.730441
									CHANNELS 3 Xrotation Yrotation Zrotation
									JOINT RightHandPinky2
									{
										OFFSET -2.861649 0.000000 0.000000
										CHANNELS 3 Xrotation Yrotation Zrotation
										JOINT RightHandPinky3
										{
											OFFSET -2.863380 0.000000 0.000000
											CHANNELS 3 Xrotation Yrotation Zrotation
											End Site
											{
												OFFSET 0.843597 2.711159 0.369971
											}
										}
									}
								}
							}
							JOINT RSleeve
							{
								OFFSET -6.676277 -0.344902 -1.011730
								CHANNELS 3 Xrotation Yrotation Zrotation
								End Site
								{
									OFFSET 0.000000 14.885353 0.000000
								}
							}
						}
					}
				}
				JOINT Backpack
				{
					OFFSET 0.000000 -2.471497 36.677502
					CHANNELS 3 Xrotation Yrotation Zrotation
					End Site
					{
						OFFSET 0.000000 20.427315 0.000000
					}
				}
				JOINT Hood
				{
					OFFSET 0.000000 18.754097 -10.431000
					CHANNELS 3 Xrotation Yrotation Zrotation
					JOINT Hood1
					{
						OFFSET 0.000000 -5.011002 -7.685901
						CHANNELS 3 Xrotation Yrotation Zrotation
						End Site
						{
							OFFSET 0.000000 9.175140 0.000000
						}
					}
				}
				JOINT LHoodieString
				{
					OFFSET 5.250500 16.397697 3.089900
					CHANNELS 3 Xrotation Yrotation Zrotation
					JOINT LHoodieString1
					{
						OFFSET 0.257700 -6.364304 3.694600
						CHANNELS 3 Xrotation Yrotation Zrotation
						JOINT LHoodieString2
						{
							OFFSET 0.000000 -9.643799 2.679100
							CHANNELS 3 Xrotation Yrotation Zrotation
							End Site
							{
								OFFSET 0.000000 10.009018 0.000000
							}
						}
					}
				}
				JOINT RHoodieString
				{
					OFFSET -5.250500 16.397697 3.089900
					CHANNELS 3 Xrotation Yrotation Zrotation
					JOINT RHoodieString1
					{
						OFFSET -0.257700 -6.364304 3.694600
						CHANNELS 3 Xrotation Yrotation Zrotation
						JOINT RHoodieString2
						{
							OFFSET 0.000000 -9.643799 2.679100
							CHANNELS 3 Xrotation Yrotation Zrotation
							End Site
							{
								OFFSET 0.000000 10.009018 0.000000
							}
						}
					}
				}
			}
			JOINT LBackpack_Strap
			{
				OFFSET 15.223200 -7.719803 -6.610900
				CHANNELS 3 Xrotation Yrotation Zrotation
				End Site
				{
					OFFSET 0.000000 16.040596 0.000000
				}
			}
			JOINT RBackpack_Strap
			{
				OFFSET -15.223000 -7.719803 -6.610900
				CHANNELS 3 Xrotation Yrotation Zrotation
				End Site
				{
					OFFSET 0.000000 16.040596 0.000000
				}
			}
		}
	}
	JOINT BoyFacialAnim_Joint
	{
		OFFSET 1.000000 -82.208099 -1.550900
		CHANNELS 3 Xrotation Yrotation Zrotation
		End Site
		{
			OFFSET 0.000000 30.012791 0.000000
		}
	}
}
MOTION
Frames: 5
Frame Time: 0.033333
0.006878 53.413773 -1.443745 -0.090066 -1.107545 -0.627352 0.000000 0.000000 0.000000 -84.097537 -5.663133 5.727993 78.659505 -2.427812 3.625731 5.038728 -0.049494 -9.423845 -0.000000 -0.000000 -0.000000 -0.000000 -0.000000 -0.000000 -0.000001 -0.000000 0.000001 -85.061564 -0.934528 -11.915974 83.413487 1.714124 -0.405434 0.157293 0.013018 1.160026 -0.000000 -0.000000 -0.000000 -0.000000 -0.000000 -0.000000 -0.000000 -0.000000 -0.000000 5.868975 0.326769 0.655910 3.783279 0.061220 0.185525 3.783310 0.044510 0.187357 4.909820 -0.821721 0.448885 -2.541336 -2.951676 -2.294057 0.000002 -0.000000 0.000000 0.000002 -0.000000 0.000000 0.000002 -0.000000 0.000000 -0.162778 -9.465833 -6.880763 -2.378594 -5.995574 -62.617842 -0.000189 -82.292687 -0.000214 40.031240 9.697691 19.068751 5.248293 13.559842 4.686693 -15.558336 11.892285 -3.151213 0.000002 -0.000002 -0.000001 -0.263540 -1.539937 -7.676167 0.471039 2.507407 -21.276167 0.000001 -0.000002 -0.000002 -0.016098 0.139167 -5.235609 0.136055 1.364803 -11.386098 0.000000 -0.000000 0.000000 0.067203 1.892446 -2.088156 0.064898 0.945062 -7.856675 -0.000000 0.000000 -0.000002 -0.486799 4.655356 5.912584 0.217912 -2.324412 -15.004005 0.000001 0.000000 -0.000000 0.000001 0.000002 -0.000002 0.855215 2.115538 8.494057 -4.539431 26.105432 59.711016 0.000109 79.860628 -0.000105 40.907547 -25.600637 -14.405861 -27.537986 -7.455128 -0.577864 3.923710 -14.094336 -11.429032 -0.000002 -0.000001 0.000002 0.040557 0.798040 -4.338703 0.043653 -0.779487 6.410043 0.000000 0.000000 0.000002 0.104293 1.480484 -5.041886 -0.000000 -0.000329 0.002657 0.000001 0.000001 -0.000000 0.209599 2.278231 -6.227075 0.000227 -0.055799 0.457989 0.000003 0.000001 -0.000001 -0.641250 -2.122662 -12.748178 0.000005 -0.000001 0.000040 -0.000001 0.000001 0.000000 -0.000001 0.000001 -0.000001 -0.000000 -0.000000 -0.000000 -0.000000 -0.000000 -0.000000 -0.000000 -0.000000 -0.000000 -0.000000 -0.000000 -0.000000 -0.000000 -0.000000 -0.000000 -0.000000 0.000000 -0.000000 -0.000000 -0.000000 -0.000000 -0.000000 -0.000000 -0.000000 -0.000000 0.000000 -0.000000 0.000001 0.000000 -0.000000 0.000001 0.000000 -0.000000 0.000000 0.000000 0.000000 
-0.020259 53.409897 -1.443490 -0.078112 -1.091970 -0.561405 0.000000 -0.000000 -0.000000 -84.105249 -5.585708 5.776631 78.651472 -2.495141 3.584459 5.021727 -0.048441 -9.383555 0.000000 0.000000 -0.000000 0.000000 0.000000 -0.000000 0.000000 0.000000 0.000001 -85.092389 -0.858360 -11.862357 83.443520 1.659790 -0.445662 0.163535 0.011936 1.199856 -0.000000 0.000000 -0.000000 -0.000000 0.000000 -0.000000 0.000000 -0.000001 -0.000000 5.864794 0.329554 0.646908 3.775580 0.061881 0.191001 3.775600 0.046518 0.192803 4.951006 -0.821278 0.454669 -2.543957 -2.888902 -2.453477 0.000001 -0.000000 -0.000000 0.000001 -0.000000 -0.000000 0.000001 -0.000000 -0.000000 -0.160413 -9.450053 -6.872162 -2.420268 -5.962267 -62.649821 0.000096 -82.201456 0.000087 40.000258 9.562971 19.059639 5.248296 13.559842 4.686693 -15.558331 11.892281 -3.151213 0.000001 -0.000002 -0.000001 -0.263539 -1.539936 -7.676166 0.471041 2.507406 -21.276162 -0.000001 0.000001 -0.000003 -0.016095 0.139167 -5.235610 0.136058 1.364803 -11.386094 -0.000001 -0.000000 -0.000001 0.067203 1.892446 -2.088156 0.064900 0.945061 -7.856675 -0.000001 -0.000000 -0.000002 -0.486800 4.655357 5.912581 0.217912 -2.324412 -15.004006 -0.000001 0.000000 0.000001 0.000001 -0.000002 0.000002 0.855168 2.111740 8.482332 -4.534773 26.108489 59.764586 0.000168 79.959604 -0.000143 41.040780 -25.838387 -14.026648 -27.545781 -7.519635 -0.543892 4.001952 -14.278794 -11.461839 -0.000001 -0.000002 0.000002 0.041029 0.793812 -4.519938 0.050506 -0.838277 6.895712 -0.000001 0.000000 0.000002 0.101616 1.467863 -4.938636 0.000034 -0.021501 0.176260 -0.000000 0.000000 -0.000000 0.206026 2.264434 -6.150026 0.000371 -0.072834 0.597590 0.000000 0.000001 0.000000 -0.649152 -2.141737 -12.804633 -0.000004 -0.000018 0.000046 -0.000000 0.000000 -0.000001 0.000002 -0.000000 -0.000001 0.000001 0.000000 -0.000000 0.000001 0.000000 -0.000000 0.000001 0.000000 -0.000000 0.000001 0.000000 -0.000000 0.000001 0.000000 -0.000000 0.000001 0.000000 -0.000000 0.000001 0.000000 -0.000000 0.000001 0.000000 -0.000000 0.000001 0.000000 -0.000000 -0.000000 -0.000000 -0.000000 -0.000000 -0.000000 -0.000000 0.000000 -0.000000 -0.000000 
-0.042872 53.414757 -1.440129 -0.083677 -1.062299 -0.505196 0.000000 0.000000 0.000000 -84.087654 -5.495737 5.820438 78.635572 -2.572627 3.549261 5.002761 -0.047540 -9.328716 -0.000000 -0.000000 -0.000000 -0.000000 -0.000000 0.000000 0.000000 0.000000 0.000001 -85.084035 -0.780584 -11.821535 83.461374 1.601846 -0.479313 0.165624 0.009741 1.249133 -0.000000 -0.000000 0.000000 -0.000000 -0.000000 0.000000 0.000000 -0.000001 -0.000000 5.864926 0.335040 0.645303 3.776447 0.063636 0.200007 3.776463 0.049403 0.201815 5.010137 -0.820906 0.447324 -2.506064 -2.864992 -2.542513 0.000000 0.000000 0.000000 0.000000 0.000000 0.000000 0.000000 0.000000 0.000000 -0.159070 -9.438000 -6.888738 -2.451780 -6.010151 -62.614885 0.000075 -82.086320 0.000078 39.911394 9.463419 19.095602 5.248293 13.559840 4.686694 -15.558331 11.892279 -3.151215 0.000001 -0.000001 -0.000001 -0.263541 -1.539937 -7.676165 0.471041 2.507406 -21.276167 -0.000002 -0.000001 -0.000000 -0.016095 0.139167 -5.235609 0.136059 1.364803 -11.386099 0.000003 0.000000 -0.000003 0.067201 1.892446 -2.088156 0.064902 0.945062 -7.856674 0.000003 0.000000 -0.000000 -0.486800 4.655356 5.912582 0.217911 -2.324412 -15.004006 0.000000 0.000002 -0.000002 -0.000001 0.000001 0.000000 0.853444 2.113448 8.445084 -4.522459 26.061161 59.789154 0.000036 80.144402 -0.000024 41.194179 -26.170763 -13.444388 -27.768489 -7.572196 -0.527815 4.037521 -14.365911 -11.560457 0.000000 -0.000000 0.000001 0.041054 0.788106 -4.639277 0.057904 -0.897365 7.384441 0.000000 0.000001 0.000004 0.097298 1.439220 -4.816087 0.000094 -0.037283 0.305998 0.000001 -0.000001 0.000001 0.200388 2.247265 -6.007722 0.000417 -0.076708 0.629447 -0.000001 0.000001 -0.000001 -0.663317 -2.216911 -12.771356 0.000003 0.000003 -0.000001 -0.000002 0.000001 -0.000003 0.000001 0.000001 -0.000001 0.000000 -0.000000 -0.000000 0.000000 -0.000000 -0.000000 0.000000 -0.000000 -0.000000 0.000000 -0.000000 -0.000000 0.000000 -0.000000 -0.000000 0.000000 -0.000000 0.000000 0.000000 -0.000000 -0.000000 0.000000 -0.000000 -0.000000 0.000000 -0.000000 0.000000 -0.000000 0.000000 -0.000000 -0.000000 0.000000 -0.000000 0.000000 0.000000 0.000000 
-0.057743 53.423470 -1.436064 -0.098156 -1.035957 -0.460947 -0.000000 0.000000 -0.000000 -84.057594 -5.416087 5.849598 78.620436 -2.631740 3.526401 4.980959 -0.047134 -9.281536 0.000000 0.000000 -0.000000 0.000000 0.000000 -0.000000 -0.000001 0.000000 0.000001 -85.054905 -0.712751 -11.802825 83.462173 1.562510 -0.499766 0.182233 0.005775 1.292009 -0.000000 0.000000 -0.000000 -0.000000 0.000000 -0.000000 -0.000000 -0.000001 -0.000000 5.866656 0.339006 0.650543 3.785558 0.064842 0.210839 3.785568 0.051400 0.212656 5.080825 -0.819848 0.431945 -2.429315 -2.863452 -2.581867 0.000001 0.000000 -0.000000 0.000001 0.000000 -0.000000 0.000001 0.000000 -0.000000 -0.158602 -9.430053 -6.921075 -2.486606 -6.057542 -62.573528 0.000001 -81.982255 -0.000011 39.832649 9.380440 19.133197 5.248295 13.559841 4.686693 -15.558336 11.892285 -3.151214 0.000003 0.000000 0.000000 -0.263541 -1.539937 -7.676164 0.471042 2.507407 -21.276164 0.000000 -0.000001 -0.000004 -0.016096 0.139167 -5.235610 0.136053 1.364803 -11.386094 0.000002 -0.000001 0.000002 0.067203 1.892446 -2.088155 0.064898 0.945062 -7.856675 -0.000000 -0.000001 -0.000001 -0.486800 4.655355 5.912583 0.217912 -2.324413 -15.004005 0.000000 0.000002 -0.000003 0.000001 0.000001 0.000001 0.850654 2.121989 8.400663 -4.524762 25.953187 59.788013 -0.000003 80.424412 0.000020 41.326807 -26.504694 -12.590724 -28.199346 -7.579826 -0.496372 4.034897 -14.369159 -11.715798 -0.000001 -0.000000 0.000003 0.040393 0.780512 -4.628961 0.061502 -0.924612 7.609998 -0.000003 0.000001 0.000002 0.092803 1.410910 -4.673656 0.000132 -0.042820 0.351278 0.000002 0.000000 -0.000000 0.192401 2.221869 -5.807789 0.000294 -0.064601 0.530115 -0.000001 0.000002 -0.000001 -0.686659 -2.360515 -12.658710 -0.000002 -0.000001 -0.000007 0.000001 -0.000000 -0.000001 -0.000001 -0.000001 0.000000 -0.000001 0.000000 -0.000000 -0.000001 0.000000 -0.000000 -0.000001 0.000000 -0.000000 -0.000001 0.000000 -0.000000 -0.000001 0.000000 -0.000000 -0.000001 -0.000000 -0.000000 -0.000001 0.000000 -0.000000 -0.000001 0.000000 -0.000000 -0.000001 -0.000000 -0.000000 0.000000 -0.000000 0.000000 0.000000 -0.000000 0.000000 -0.000000 0.000000 -0.000000 
-0.063935 53.429405 -1.433085 -0.109179 -1.023912 -0.427551 -0.000000 0.000000 -0.000000 -84.035915 -5.360162 5.863677 78.615908 -2.660342 3.513175 4.957077 -0.047136 -9.251399 0.000000 0.000000 0.000000 0.000000 0.000000 0.000000 -0.000001 0.000000 -0.000001 -85.032700 -0.663262 -11.805240 83.453615 1.554518 -0.508331 0.214761 0.000967 1.318093 -0.000000 0.000000 0.000000 -0.000000 0.000000 0.000000 -0.000000 0.000000 0.000000 5.864734 0.338406 0.658466 3.797548 0.064375 0.218800 3.797551 0.051196 0.220604 5.153214 -0.818755 0.415099 -2.306072 -2.868678 -2.606284 0.000002 0.000000 -0.000000 0.000002 0.000000 -0.000000 0.000002 0.000000 -0.000000 -0.158320 -9.423819 -6.951263 -2.528224 -6.047658 -62.574525 -0.000088 -81.918475 -0.000087 39.814682 9.304096 19.136749 5.248295 13.559845 4.686694 -15.558331 11.892285 -3.151214 0.000001 -0.000000 -0.000002 -0.263540 -1.539937 -7.676164 0.471040 2.507407 -21.276166 0.000002 -0.000000 -0.000000 -0.016098 0.139167 -5.235611 0.136057 1.364803 -11.386095 0.000001 -0.000001 -0.000002 0.067206 1.892446 -2.088155 0.064900 0.945063 -7.856677 -0.000000 0.000000 -0.000002 -0.486799 4.655357 5.912584 0.217912 -2.324411 -15.004008 -0.000000 0.000001 -0.000000 0.000001 0.000002 0.000001 0.847768 2.136052 8.368673 -4.535283 25.797459 59.746602 0.000146 80.805530 -0.000143 41.406362 -26.803990 -11.494180 -28.775662 -7.540975 -0.433493 4.020410 -14.348995 -11.903961 -0.000001 0.000005 0.000001 0.039365 0.777938 -4.420326 0.058858 -0.904649 7.444639 0.000000 0.000000 0.000002 0.087630 1.372840 -4.532020 0.000108 -0.038690 0.317491 -0.000000 0.000002 -0.000004 0.183789 2.191901 -5.597678 0.000114 -0.040264 0.330364 -0.000000 0.000000 0.000002 -0.718905 -2.571351 -12.480549 0.000001 -0.000004 -0.000006 0.000000 -0.000001 0.000002 0.000000 0.000000 0.000002 -0.000000 -0.000000 0.000000 -0.000000 -0.000000 0.000000 -0.000000 -0.000000 0.000000 -0.000000 -0.000000 0.000000 -0.000000 -0.000000 0.000000 -0.000000 0.000000 -0.000000 -0.000000 -0.000000 0.000000 -0.000000 -0.000000 0.000000 -0.000000 0.000000 -0.000000 0.000001 -0.000000 0.000000 0.000001 -0.000000 0.000000 -0.000000 0.000000 -0.000000 
